<?xml version="1.0" encoding="UTF-8" standalone="no"?>
<svg
   xmlns:svg="http://www.w3.org/2000/svg"
   xmlns="http://www.w3.org/2000/svg"
   id="svg-mamelogo-small-black"
   version="1.1"
   width="13.256127mm"
   height="3.8382754mm"
   viewBox="0 0 13.256127 3.8382754">
  <g transform="matrix(0.04067278,0,0,0.04067278,0.094606684,0.094866075)">
    <path
       fill="#000000" stroke="none"
       d="m 1.594659,68.45051 66.4546,-66.5869 v 28.92769 l 29.05998,-28.92769 v 46.56667 l 46.74315,-46.83125 v 52.51979 l 52.519789,-52.51979 v 29.19227 l 29.01579,-28.92769 v 44.6704 l 43.56815,-43.65625 h 50.71269 l -16.36184,16.36025 h -25.83921 l -7.40833,7.40833 h 13.44877 l -17.02064,17.24184 h -13.80332 l -7.67291,7.54062 h 44.93418 l -17.15293,17.02171 h -68.74748 l 4.14496,-4.54211 V 45.47568 L 183.62799,69.64113 V 41.5953 L 156.7286,68.45051 H 126.433809 V 45.74026 L 81.763409,90.41092 H 55.305079 L 79.911329,65.7163 V 45.74026 L 55.305079,70.1703 v -29.10417 l -27.25209,27.38438 z" />
  </g>
</svg>
